<svg aria-hidden="true" style="position:absolute;width:0;height:0;overflow:hidden" xmlns="http://www.w3.org/2000/svg">
  <defs>
    <symbol id="logo" viewBox="0 0 107 32">
      <path fill="#ff6b0a" style="fill:var(--color1, #ff6b0a)" d="M106.667 0v32H59.536V0h47.131zM74.42 8.811v13.927l.001.044a.842.842 0 0 1-.001.087c-.007.08.015.128.107.115a.485.485 0 0 1 .066-.001l.033.001h3.582c.075.001.112.001.129-.017s.016-.051.014-.116l-.001-.078V8.83l-.001-.033a.485.485 0 0 1 .001-.066c.008-.082-.02-.125-.109-.115-.018.002-.036.001-.054.001l-.028-.001h-3.55l-.062-.001c-.065-.001-.098-.001-.114.015s-.016.049-.015.116l.001.064zm19.579-.194h-5.863c-1.954 0-3.908 0-5.86-.002h-.133c-.066-.003-.089.028-.084.089a.486.486 0 0 1 0 .054v3.398c0 .072-.001.107.017.124s.051.017.118.016H85.923c.12 0 .18 0 .209.03s.029.087.029.2v10.335c-.001.059-.001.09.014.106.017.018.052.017.127.017h3.571c.111 0 .166 0 .193-.028s.027-.08.027-.186V12.488l-.001-.059c-.001-.063-.001-.097.015-.114.018-.019.055-.018.133-.018h3.798c.162 0 .162 0 .164-.159V8.759c.001-.072.001-.108-.016-.126s-.053-.017-.123-.016L94 8.618z"/>
      <path fill="#010101" style="fill:var(--color2, #010101)" d="m47.132 0 12.403 16-12.403 16H0V0h47.132zm-26.38 13.662.215.174a.371.371 0 0 0 .106-.107.256.256 0 0 1 .02-.026c.254-.302.507-.606.76-.91.507-.606 1.012-1.212 1.518-1.82.101-.122.097-.177-.018-.276a12.617 12.617 0 0 0-.277-.233c-.803-.657-1.685-1.17-2.684-1.467a9.43 9.43 0 0 0-2.043-.353c-.905-.061-1.802-.031-2.691.174-3.112.716-5.434 3.292-5.707 6.594a7.795 7.795 0 0 0 .225 2.638c.519 1.96 1.645 3.461 3.434 4.45.975.539 2.03.823 3.14.912.94.076 1.87.018 2.788-.189 1.553-.35 2.925-1.056 4.146-2.067a.333.333 0 0 0 .137-.289c-.004-1.572-.004-3.145-.003-4.717v-1.179a.66.66 0 0 0-.003-.062c-.003-.046-.006-.092.006-.134.015-.049-.012-.077-.037-.104-.021-.022-.042-.044-.039-.077.007-.054-.03-.062-.073-.062h-6.556l-.038.001c-.026.001-.052.002-.077-.001-.066-.007-.087.026-.083.087a.657.657 0 0 1 .001.077l-.001.038V17.839l-.001.074c-.001.063-.002.096.014.112s.052.017.125.016H19.772c.072-.001.107-.001.124.016.016.016.015.048.014.11l-.001.078v.679c0 .308 0 .311-.279.445-.818.391-1.681.503-2.573.391-.991-.123-1.784-.591-2.365-1.401-.378-.527-.585-1.122-.662-1.763-.097-.818.002-1.605.373-2.348.448-.892 1.125-1.533 2.098-1.827.682-.207 1.373-.153 2.056-.003.619.135 1.159.437 1.657.816.182.138.359.281.539.427zm18.346-2.98c-1.528-1.39-3.348-2.052-5.229-2.066-.869.002-1.518.072-2.207.251-1.998.521-3.563 1.638-4.602 3.422-1.067 1.83-1.283 3.793-.687 5.812.667 2.257 2.089 3.9 4.29 4.815 1.69.701 3.44.795 5.206.332 2.051-.537 3.624-1.725 4.654-3.578.869-1.562 1.102-3.238.778-4.987-.291-1.572-1.017-2.919-2.203-4zm-8.437 3.528c.666-1.227 1.729-1.815 2.762-1.838 2.094-.005 3.464 1.173 3.837 2.806.226.984.125 1.94-.358 2.834-.57 1.05-1.458 1.661-2.654 1.797-1.156.133-2.165-.194-2.99-1.025a3.579 3.579 0 0 1-.983-1.914c-.172-.928-.066-1.827.386-2.66z"/>
    </symbol>
    <symbol id="javascript" viewBox="0 0 32 32">
      <path fill="#f7df1e" style="fill:var(--color3, #f7df1e)" d="M0 0h32v32H0V0z"/>
      <path style="fill:var(--color4, #000)" d="m8.414 26.741 2.449-1.482c.473.838.902 1.546 1.933 1.546.988 0 1.611-.387 1.611-1.89V14.69h3.007v10.267c0 3.115-1.826 4.532-4.489 4.532-2.406 0-3.802-1.246-4.511-2.75zm10.634-.322 2.448-1.418c.645 1.053 1.482 1.826 2.964 1.826 1.246 0 2.041-.623 2.041-1.482 0-1.031-.816-1.396-2.191-1.997l-.752-.323c-2.17-.923-3.609-2.083-3.609-4.532 0-2.256 1.718-3.974 4.404-3.974 1.912 0 3.287.666 4.274 2.406l-2.341 1.504c-.516-.924-1.074-1.289-1.933-1.289-.881 0-1.439.558-1.439 1.289 0 .902.558 1.268 1.847 1.826l.752.322c2.556 1.096 3.995 2.212 3.995 4.726 0 2.707-2.127 4.189-4.983 4.189-2.792 0-4.597-1.332-5.477-3.072z"/>
    </symbol>
    <symbol id="icon-linkedin" viewBox="0 0 31 32">
      <path d="M27.84 0.455h-24.96c-1.584 0-2.88 1.296-2.88 2.88v24.96c0 1.584 1.296 2.88 2.88 2.88h24.96c1.584 0 2.88-1.296 2.88-2.88v-24.96c0-1.584-1.296-2.88-2.88-2.88zM11.52 25.415h-3.84v-13.44h3.84v13.44zM9.6 10.055c-1.062 0-1.92-0.858-1.92-1.92s0.858-1.92 1.92-1.92c1.062 0 1.92 0.858 1.92 1.92s-0.858 1.92-1.92 1.92zM24.96 25.415h-3.84v-7.68c0-1.062-0.858-1.92-1.92-1.92s-1.92 0.858-1.92 1.92v7.68h-3.84v-13.44h3.84v2.382c0.792-1.086 2.004-2.382 3.36-2.382 2.388 0 4.32 2.149 4.32 4.8v8.64z"></path>
    </symbol>
    <symbol id="icon-youtube" viewBox="0 0 31 32">
      <path d="M27.919 9.658c-0.147-0.546-0.435-1.045-0.835-1.445s-0.897-0.69-1.443-0.838c-2.025-0.556-10.125-0.565-10.125-0.565s-8.099-0.009-10.125 0.522c-0.546 0.155-1.042 0.448-1.442 0.851s-0.689 0.901-0.841 1.448c-0.534 2.025-0.539 6.224-0.539 6.224s-0.005 4.22 0.525 6.224c0.297 1.108 1.17 1.983 2.279 2.282 2.045 0.556 10.124 0.565 10.124 0.565s8.1 0.009 10.125-0.521c0.546-0.148 1.044-0.436 1.445-0.836s0.69-0.897 0.84-1.443c0.535-2.023 0.539-6.222 0.539-6.222s0.026-4.221-0.526-6.246zM12.925 19.745l0.007-7.758 6.732 3.885-6.739 3.872z"></path>
    </symbol>
    <symbol id="icon-instagram" viewBox="0 0 31 32">
      <path d="M15.513 6.319c3.109 0 3.477 0.014 4.699 0.068 1.137 0.050 1.75 0.241 2.159 0.4 0.541 0.209 0.931 0.464 1.336 0.868 0.409 0.409 0.659 0.796 0.873 1.337 0.159 0.409 0.35 1.027 0.4 2.159 0.055 1.227 0.068 1.595 0.068 4.7s-0.014 3.477-0.068 4.7c-0.050 1.137-0.241 1.75-0.4 2.159-0.209 0.541-0.463 0.931-0.868 1.336-0.409 0.409-0.796 0.659-1.336 0.873-0.409 0.159-1.028 0.35-2.159 0.4-1.227 0.055-1.595 0.068-4.7 0.068s-3.477-0.014-4.7-0.068c-1.137-0.050-1.75-0.241-2.159-0.4-0.541-0.209-0.931-0.463-1.337-0.868-0.409-0.409-0.659-0.796-0.873-1.336-0.159-0.409-0.35-1.027-0.4-2.159-0.055-1.228-0.068-1.595-0.068-4.7s0.014-3.477 0.068-4.7c0.050-1.137 0.241-1.75 0.4-2.159 0.209-0.541 0.464-0.931 0.868-1.337 0.409-0.409 0.796-0.659 1.337-0.873 0.409-0.159 1.027-0.35 2.159-0.4 1.222-0.055 1.591-0.068 4.7-0.068h0.001zM15.513 4.224c-3.159 0-3.554 0.014-4.795 0.068-1.236 0.055-2.086 0.255-2.822 0.541-0.768 0.3-1.418 0.695-2.063 1.345-0.65 0.646-1.046 1.295-1.345 2.059-0.287 0.741-0.487 1.586-0.541 2.822-0.055 1.246-0.068 1.641-0.068 4.799s0.014 3.554 0.068 4.795c0.055 1.236 0.255 2.086 0.541 2.822 0.3 0.768 0.695 1.418 1.345 2.063 0.645 0.645 1.295 1.046 2.059 1.341 0.741 0.287 1.586 0.486 2.822 0.541 1.241 0.055 1.636 0.068 4.795 0.068s3.554-0.014 4.795-0.068c1.236-0.055 2.086-0.254 2.822-0.541 0.763-0.295 1.414-0.695 2.059-1.341s1.046-1.295 1.341-2.059c0.287-0.741 0.486-1.586 0.541-2.822 0.055-1.241 0.068-1.636 0.068-4.795s-0.014-3.554-0.068-4.795c-0.055-1.236-0.255-2.086-0.541-2.822-0.286-0.773-0.682-1.422-1.331-2.068-0.645-0.645-1.295-1.046-2.059-1.341-0.741-0.287-1.586-0.486-2.822-0.541-1.245-0.059-1.64-0.073-4.799-0.073l-0.001 0.001z"></path>
      <path d="M15.513 9.883c-3.299 0-5.977 2.677-5.977 5.977s2.677 5.977 5.977 5.977c3.3 0 5.977-2.677 5.977-5.977s-2.677-5.977-5.977-5.977zM15.513 19.736c-2.141 0-3.877-1.736-3.877-3.877s1.736-3.877 3.877-3.877c2.141 0 3.877 1.736 3.877 3.877s-1.736 3.877-3.877 3.877z"></path>
      <path d="M23.12 9.646c0 0.771-0.625 1.395-1.395 1.395s-1.395-0.625-1.395-1.395c0-0.771 0.625-1.395 1.395-1.395s1.395 0.625 1.395 1.395z"></path>
    </symbol>
  </defs>
</svg>